<svg xmlns="http://www.w3.org/2000/svg" width="182" height="32" viewBox="0 0 182 32">
  <path fill="#FFF" fill-rule="evenodd" d="M175.977512,28.673607 L175.977512,32 L0,32 L0,28.673607 L175.977512,28.673607 Z M66.8908663,2.77037808e-05 C71.2607151,2.77037808e-05 73.4305256,1.97780061 73.1334682,6.50293617 L73.1334682,6.50293617 L68.7636194,6.50293617 C68.7636194,4.88475833 68.4962402,3.23638338 66.6828437,3.23638338 C65.2261358,3.23638338 64.3640923,4.04561081 64.3640923,5.54410831 C64.3640923,9.64980863 73.4008473,9.29021355 73.4008473,16.0928769 C73.4008473,21.6967977 69.3283307,22.3564247 65.9098349,22.3564247 C60.3512069,22.3564247 59.3108191,19.0596748 59.5485199,15.3138466 L59.5485199,15.3138466 L64.0370818,15.3138466 C64.0370818,17.3816568 64.1263914,19.119515 66.5935341,19.119515 C68.1095985,19.119515 68.8529289,18.13049 68.8529289,16.6621896 C68.8529289,12.766484 59.8161739,12.5265692 59.8161739,6.08350093 C59.8161739,2.69699076 61.421273,2.77037808e-05 66.8908663,2.77037808e-05 Z M32.9218729,2.77037808e-05 C37.3214,2.77037808e-05 40.0561966,2.48727314 39.7885427,7.0124087 L39.7885427,7.0124087 L35.3296591,7.0124087 C35.3596121,5.0047157 35.0326017,3.23638338 32.6544938,3.23638338 C30.0347176,3.23638338 29.8709816,6.58145258 29.8607481,10.4567675 L29.8606765,11.5894034 C29.8835995,18.0525019 30.5589368,19.2095523 33.070539,19.2095523 C33.8135947,19.2095523 34.6162817,19.0297547 35.2999808,18.790117 L35.2999808,18.790117 L35.2999808,13.9951466 L32.8625164,13.9951466 L32.8625164,10.6687537 L39.7885427,10.6687537 L39.7885427,21.6366805 C38.5698105,21.8771493 35.5080034,22.3564247 33.7245599,22.3564247 C26.174191,22.3564247 25.3121475,19.2095523 25.3121475,10.9981516 L25.3129872,10.5237973 C25.3335918,5.22737025 25.7923482,2.77037808e-05 32.9218729,2.77037808e-05 Z M47.5573491,0.359539667 L47.5573491,9.02029562 L52.6999319,9.02029562 L52.6999319,0.359539667 L57.1884938,0.359539667 L57.1884938,21.9967465 L52.6999319,21.9967465 L52.6999319,12.3466886 L47.5573491,12.3466886 L47.5573491,21.9967465 L43.0685124,21.9967465 L43.0685124,0.359539667 L47.5573491,0.359539667 Z M170.793434,0.359650482 L174.003908,9.49995888 L177.422129,0.359650482 L182,0.359650482 L175.995374,14.5046469 L175.995374,21.9965803 L171.506812,21.9965803 L171.506812,14.5046469 L167.285079,3.87636842 L161.630272,3.87636842 L161.630272,21.9965803 L157.336542,21.9965803 L157.336542,3.87636842 L151.758404,3.87636842 L151.758404,0.359650482 L170.793434,0.359650482 Z M134.930281,0.359789001 L134.930281,21.9967188 L130.441719,21.9967188 L130.441719,0.359789001 L134.930281,0.359789001 Z M4.49205183,0.359539667 L4.49205183,9.02029562 L9.6346346,9.02029562 L9.6346346,0.359539667 L14.1231965,0.359539667 L14.1231965,21.9967465 L9.6346346,21.9967465 L9.6346346,12.3466886 L4.49205183,12.3466886 L4.49205183,21.9967465 L0.00348994342,21.9967465 L0.00348994342,0.359539667 L4.49205183,0.359539667 Z M22.3306915,0.359789001 L22.3306915,21.9967188 L17.8421297,21.9967188 L17.8421297,0.359789001 L22.3306915,0.359789001 Z M150.27537,0.359733594 L150.27537,3.87645153 L143.052012,3.87645153 L143.052012,9.02021251 L149.710384,9.02021251 L149.710384,12.3466055 L143.052012,12.3466055 L143.052012,18.6699934 L150.512796,18.6699934 L150.512796,21.9966634 L138.563175,21.9966634 L138.563175,0.359733594 L150.27537,0.359733594 Z M82.1430732,0.359761297 L87.8509169,15.540048 L87.9102734,15.540048 L87.9102734,0.359761297 L92.1017779,0.359761297 L92.1017779,21.9966911 L86.1859116,21.9966911 L80.3302262,5.97725693 L80.2705949,5.97725693 L80.2705949,21.9966911 L76.0793652,21.9966911 L76.0793652,0.359761297 L82.1430732,0.359761297 Z M102.538165,3.23635567 C105.064939,3.23635567 105.392224,5.63384086 105.392224,11.1781985 C105.392224,16.7220021 105.064939,19.1197643 102.538165,19.1197643 C100.011666,19.1197643 99.6843807,16.7220021 99.6843807,11.1781985 C99.6843807,5.63384086 100.011666,3.23635567 102.538165,3.23635567 M102.538165,22.356397 C109.940143,22.356397 109.940143,16.8422365 109.940143,11.1781985 C109.940143,5.45404332 109.940143,0 102.538165,0 C95.1364623,0 95.1364623,5.45404332 95.1364623,11.1781985 C95.1364623,16.8422365 95.1364623,22.356397 102.538165,22.356397 M117.328161,18.6699934 L117.328161,12.52668 L119.944519,12.52668 C122.203364,12.52668 122.916742,13.6952255 122.916742,15.6131583 C122.916742,18.6403504 120.776609,18.6699934 119.825256,18.6699934 L117.328161,18.6699934 Z M117.328161,3.68612655 L120.093185,3.68612655 C121.608975,3.68612655 122.679041,4.85467203 122.679041,6.44320682 C122.679041,8.5409371 121.311643,9.20028708 120.330611,9.20028708 L117.328161,9.20028708 L117.328161,3.68612655 Z M127.405578,16.2725082 C127.405578,13.3057104 126.573213,11.2379002 123.392418,10.7882678 L123.392418,10.7284276 C125.829883,10.2491522 127.048615,8.45117685 127.048615,5.96337733 C127.048615,1.34848153 124.224784,0.359733594 120.806288,0.359733594 L112.839599,0.359733594 L112.839599,21.9966634 L120.776609,21.9966634 C122.679041,21.9966634 127.405578,21.7570257 127.405578,16.2725082 L127.405578,16.2725082 Z"/>
</svg>
